{
    "asset" : {
        "generator" : "Khronos glTF Blender I/O v3.2.43",
        "version" : "2.0"
    },
    "scene" : 0,
    "scenes" : [
        {
            "name" : "Scene",
            "nodes" : [
                0,
                1,
                2,
                3,
                4,
                5
            ]
        }
    ],
    "nodes" : [
        {
            "mesh" : 0,
            "name" : "Cube",
            "translation" : [
                -1.0748894214630127,
                1.041833519935608,
                -5.958754539489746
            ]
        },
        {
            "mesh" : 1,
            "name" : "Sphere",
            "translation" : [
                -3.897364854812622,
                1.2170231342315674,
                -3.953613042831421
            ]
        },
        {
            "mesh" : 2,
            "name" : "Torus",
            "translation" : [
                2.6649279594421387,
                0.42642343044281006,
                -5.890629291534424
            ]
        },
        {
            "mesh" : 3,
            "name" : "Plane",
            "rotation" : [
                0,
                1,
                0,
                0
            ],
            "scale" : [
                -9.359198570251465,
                -0.5717607736587524,
                -9.359198570251465
            ],
            "translation" : [
                1.3410203456878662,
                -0.06114375963807106,
                -3.7127327919006348
            ]
        },
        {
            "name" : "Mball",
            "translation" : [
                8.962791442871094,
                1.3346846103668213,
                -0.8492884635925293
            ]
        },
        {
            "mesh" : 4,
            "name" : "Cube.001",
            "translation" : [
                3.30985164642334,
                1.1865400075912476,
                -1.2965188026428223
            ]
        }
    ],
    "materials" : [
        {
            "doubleSided" : true,
            "name" : "Material.003",
            "pbrMetallicRoughness" : {
                "baseColorFactor" : [
                    0.8000000715255737,
                    0.6938701868057251,
                    0.07654761523008347,
                    1
                ],
                "metallicFactor" : 0,
                "roughnessFactor" : 0.5
            }
        },
        {
            "doubleSided" : true,
            "name" : "Material.002",
            "pbrMetallicRoughness" : {
                "baseColorFactor" : [
                    0.07996736466884613,
                    0.4013797342777252,
                    0.682664692401886,
                    1
                ],
                "metallicFactor" : 0.10000000149011612,
                "roughnessFactor" : 0.5
            }
        }
    ],
    "meshes" : [
        {
            "name" : "Cube.002",
            "primitives" : [
                {
                    "attributes" : {
                        "POSITION" : 0,
                        "NORMAL" : 1,
                        "TEXCOORD_0" : 2
                    },
                    "indices" : 3
                }
            ]
        },
        {
            "name" : "Sphere.001",
            "primitives" : [
                {
                    "attributes" : {
                        "POSITION" : 4,
                        "NORMAL" : 5,
                        "TEXCOORD_0" : 6
                    },
                    "indices" : 7,
                    "material" : 0
                }
            ]
        },
        {
            "name" : "Torus",
            "primitives" : [
                {
                    "attributes" : {
                        "POSITION" : 8,
                        "NORMAL" : 9,
                        "TEXCOORD_0" : 10
                    },
                    "indices" : 11
                }
            ]
        },
        {
            "name" : "Plane",
            "primitives" : [
                {
                    "attributes" : {
                        "POSITION" : 12,
                        "NORMAL" : 13,
                        "TEXCOORD_0" : 14
                    },
                    "indices" : 15
                }
            ]
        },
        {
            "name" : "Cube.003",
            "primitives" : [
                {
                    "attributes" : {
                        "POSITION" : 16,
                        "NORMAL" : 17,
                        "TEXCOORD_0" : 18
                    },
                    "indices" : 3,
                    "material" : 1
                }
            ]
        }
    ],
    "accessors" : [
        {
            "bufferView" : 0,
            "componentType" : 5126,
            "count" : 24,
            "max" : [
                1,
                1,
                1
            ],
            "min" : [
                -1,
                -1,
                -1
            ],
            "type" : "VEC3"
        },
        {
            "bufferView" : 1,
            "componentType" : 5126,
            "count" : 24,
            "type" : "VEC3"
        },
        {
            "bufferView" : 2,
            "componentType" : 5126,
            "count" : 24,
            "type" : "VEC2"
        },
        {
            "bufferView" : 3,
            "componentType" : 5123,
            "count" : 36,
            "type" : "SCALAR"
        },
        {
            "bufferView" : 4,
            "componentType" : 5126,
            "count" : 1984,
            "max" : [
                0.9999997019767761,
                1,
                0.9999994039535522
            ],
            "min" : [
                -0.9999990463256836,
                -1,
                -0.9999987483024597
            ],
            "type" : "VEC3"
        },
        {
            "bufferView" : 5,
            "componentType" : 5126,
            "count" : 1984,
            "type" : "VEC3"
        },
        {
            "bufferView" : 6,
            "componentType" : 5126,
            "count" : 1984,
            "type" : "VEC2"
        },
        {
            "bufferView" : 7,
            "componentType" : 5123,
            "count" : 2880,
            "type" : "SCALAR"
        },
        {
            "bufferView" : 8,
            "componentType" : 5126,
            "count" : 2304,
            "max" : [
                1.25,
                0.25,
                1.25
            ],
            "min" : [
                -1.25,
                -0.25,
                -1.25
            ],
            "type" : "VEC3"
        },
        {
            "bufferView" : 9,
            "componentType" : 5126,
            "count" : 2304,
            "type" : "VEC3"
        },
        {
            "bufferView" : 10,
            "componentType" : 5126,
            "count" : 2304,
            "type" : "VEC2"
        },
        {
            "bufferView" : 11,
            "componentType" : 5123,
            "count" : 3456,
            "type" : "SCALAR"
        },
        {
            "bufferView" : 12,
            "componentType" : 5126,
            "count" : 4,
            "max" : [
                1,
                0,
                1
            ],
            "min" : [
                -1,
                0,
                -1
            ],
            "type" : "VEC3"
        },
        {
            "bufferView" : 13,
            "componentType" : 5126,
            "count" : 4,
            "type" : "VEC3"
        },
        {
            "bufferView" : 14,
            "componentType" : 5126,
            "count" : 4,
            "type" : "VEC2"
        },
        {
            "bufferView" : 15,
            "componentType" : 5123,
            "count" : 6,
            "type" : "SCALAR"
        },
        {
            "bufferView" : 16,
            "componentType" : 5126,
            "count" : 24,
            "max" : [
                1,
                1,
                1
            ],
            "min" : [
                -1,
                -1,
                -1
            ],
            "type" : "VEC3"
        },
        {
            "bufferView" : 17,
            "componentType" : 5126,
            "count" : 24,
            "type" : "VEC3"
        },
        {
            "bufferView" : 18,
            "componentType" : 5126,
            "count" : 24,
            "type" : "VEC2"
        }
    ],
    "bufferViews" : [
        {
            "buffer" : 0,
            "byteLength" : 288,
            "byteOffset" : 0
        },
        {
            "buffer" : 0,
            "byteLength" : 288,
            "byteOffset" : 288
        },
        {
            "buffer" : 0,
            "byteLength" : 192,
            "byteOffset" : 576
        },
        {
            "buffer" : 0,
            "byteLength" : 72,
            "byteOffset" : 768
        },
        {
            "buffer" : 0,
            "byteLength" : 23808,
            "byteOffset" : 840
        },
        {
            "buffer" : 0,
            "byteLength" : 23808,
            "byteOffset" : 24648
        },
        {
            "buffer" : 0,
            "byteLength" : 15872,
            "byteOffset" : 48456
        },
        {
            "buffer" : 0,
            "byteLength" : 5760,
            "byteOffset" : 64328
        },
        {
            "buffer" : 0,
            "byteLength" : 27648,
            "byteOffset" : 70088
        },
        {
            "buffer" : 0,
            "byteLength" : 27648,
            "byteOffset" : 97736
        },
        {
            "buffer" : 0,
            "byteLength" : 18432,
            "byteOffset" : 125384
        },
        {
            "buffer" : 0,
            "byteLength" : 6912,
            "byteOffset" : 143816
        },
        {
            "buffer" : 0,
            "byteLength" : 48,
            "byteOffset" : 150728
        },
        {
            "buffer" : 0,
            "byteLength" : 48,
            "byteOffset" : 150776
        },
        {
            "buffer" : 0,
            "byteLength" : 32,
            "byteOffset" : 150824
        },
        {
            "buffer" : 0,
            "byteLength" : 12,
            "byteOffset" : 150856
        },
        {
            "buffer" : 0,
            "byteLength" : 288,
            "byteOffset" : 150868
        },
        {
            "buffer" : 0,
            "byteLength" : 288,
            "byteOffset" : 151156
        },
        {
            "buffer" : 0,
            "byteLength" : 192,
            "byteOffset" : 151444
        }
    ],
    "buffers" : [
        {
            "byteLength" : 151636,
            "uri" : "data:application/octet-stream;base64,"
        }
    ]
}
