{
    "asset" : {
        "generator" : "Khronos glTF Blender I/O v3.2.43",
        "version" : "2.0"
    },
    "scene" : 0,
    "scenes" : [
        {
            "name" : "Scene",
            "nodes" : [
                4
            ]
        }
    ],
    "nodes" : [
        {
            "name" : "Bone.002",
            "rotation" : [
                6.05359762317903e-09,
                1.2014061212539673e-07,
                -2.3283062144940914e-09,
                1
            ],
            "scale" : [
                1,
                0.9999999403953552,
                1
            ],
            "translation" : [
                2.9802322387695312e-08,
                0.8420361876487732,
                2.9802322387695312e-08
            ]
        },
        {
            "children" : [
                0
            ],
            "name" : "Bone.001",
            "rotation" : [
                3.259629011154175e-09,
                1.862645149230957e-09,
                -3.725290298461914e-09,
                1
            ],
            "translation" : [
                -5.960464477539063e-08,
                1.0000001192092896,
                1.4901161193847656e-07
            ]
        },
        {
            "children" : [
                1
            ],
            "name" : "Bone",
            "rotation" : [
                3.259629011154175e-09,
                1.862645149230957e-09,
                -3.725290298461914e-09,
                1
            ],
            "translation" : [
                5.960464477539063e-08,
                0,
                1.1920928955078125e-07
            ]
        },
        {
            "mesh" : 0,
            "name" : "Cylinder.001",
            "skin" : 0
        },
        {
            "children" : [
                3,
                2
            ],
            "name" : "Armature",
            "rotation" : [
                -0.07352565973997116,
                -0.0659337043762207,
                0.09614568203687668,
                0.9904559254646301
            ],
            "translation" : [
                -3.432281017303467,
                1.5204133987426758,
                -3.252288818359375
            ]
        }
    ],
    "animations" : [
        {
            "channels" : [
                {
                    "sampler" : 0,
                    "target" : {
                        "node" : 2,
                        "path" : "translation"
                    }
                },
                {
                    "sampler" : 1,
                    "target" : {
                        "node" : 2,
                        "path" : "rotation"
                    }
                },
                {
                    "sampler" : 2,
                    "target" : {
                        "node" : 2,
                        "path" : "scale"
                    }
                },
                {
                    "sampler" : 3,
                    "target" : {
                        "node" : 1,
                        "path" : "translation"
                    }
                },
                {
                    "sampler" : 4,
                    "target" : {
                        "node" : 1,
                        "path" : "rotation"
                    }
                },
                {
                    "sampler" : 5,
                    "target" : {
                        "node" : 1,
                        "path" : "scale"
                    }
                },
                {
                    "sampler" : 6,
                    "target" : {
                        "node" : 0,
                        "path" : "translation"
                    }
                },
                {
                    "sampler" : 7,
                    "target" : {
                        "node" : 0,
                        "path" : "rotation"
                    }
                },
                {
                    "sampler" : 8,
                    "target" : {
                        "node" : 0,
                        "path" : "scale"
                    }
                }
            ],
            "name" : "goFront",
            "samplers" : [
                {
                    "input" : 35,
                    "interpolation" : "LINEAR",
                    "output" : 36
                },
                {
                    "input" : 35,
                    "interpolation" : "LINEAR",
                    "output" : 37
                },
                {
                    "input" : 35,
                    "interpolation" : "LINEAR",
                    "output" : 38
                },
                {
                    "input" : 35,
                    "interpolation" : "LINEAR",
                    "output" : 39
                },
                {
                    "input" : 35,
                    "interpolation" : "LINEAR",
                    "output" : 40
                },
                {
                    "input" : 35,
                    "interpolation" : "LINEAR",
                    "output" : 41
                },
                {
                    "input" : 35,
                    "interpolation" : "LINEAR",
                    "output" : 42
                },
                {
                    "input" : 35,
                    "interpolation" : "LINEAR",
                    "output" : 43
                },
                {
                    "input" : 35,
                    "interpolation" : "LINEAR",
                    "output" : 44
                }
            ]
        }
    ],
    "materials" : [
        {
            "doubleSided" : true,
            "name" : "Material.009",
            "pbrMetallicRoughness" : {
                "baseColorFactor" : [
                    0.824768602848053,
                    0.8386008143424988,
                    1,
                    1
                ],
                "metallicFactor" : 0,
                "roughnessFactor" : 0.4000000059604645
            }
        },
        {
            "doubleSided" : true,
            "name" : "Material.008",
            "pbrMetallicRoughness" : {
                "baseColorFactor" : [
                    0.3043820261955261,
                    0.38005179166793823,
                    0.1994508057832718,
                    1
                ],
                "metallicFactor" : 0,
                "roughnessFactor" : 0.4000000059604645
            }
        },
        {
            "doubleSided" : true,
            "name" : "blue",
            "pbrMetallicRoughness" : {
                "baseColorFactor" : [
                    0.03673941269516945,
                    0.03846246376633644,
                    0.0748983696103096,
                    1
                ],
                "metallicFactor" : 0,
                "roughnessFactor" : 0.4000000059604645
            }
        },
        {
            "doubleSided" : true,
            "name" : "Material.001",
            "pbrMetallicRoughness" : {
                "baseColorFactor" : [
                    0,
                    0.01350064855068922,
                    0.8000000715255737,
                    1
                ],
                "metallicFactor" : 0,
                "roughnessFactor" : 0.4000000059604645
            }
        },
        {
            "doubleSided" : true,
            "name" : "Material.006",
            "pbrMetallicRoughness" : {
                "baseColorFactor" : [
                    0.824768602848053,
                    0.8386008143424988,
                    1,
                    1
                ],
                "metallicFactor" : 0,
                "roughnessFactor" : 0.4000000059604645
            }
        },
        {
            "doubleSided" : true,
            "name" : "Material.007",
            "pbrMetallicRoughness" : {
                "baseColorFactor" : [
                    0.3043820261955261,
                    0.38005179166793823,
                    0.1994508057832718,
                    1
                ],
                "metallicFactor" : 0,
                "roughnessFactor" : 0.4000000059604645
            }
        }
    ],
    "meshes" : [
        {
            "name" : "Cylinder.002",
            "primitives" : [
                {
                    "attributes" : {
                        "POSITION" : 0,
                        "NORMAL" : 1,
                        "TEXCOORD_0" : 2,
                        "JOINTS_0" : 3,
                        "WEIGHTS_0" : 4
                    },
                    "indices" : 5,
                    "material" : 0
                },
                {
                    "attributes" : {
                        "POSITION" : 6,
                        "NORMAL" : 7,
                        "TEXCOORD_0" : 8,
                        "JOINTS_0" : 9,
                        "WEIGHTS_0" : 10
                    },
                    "indices" : 11,
                    "material" : 1
                },
                {
                    "attributes" : {
                        "POSITION" : 12,
                        "NORMAL" : 13,
                        "TEXCOORD_0" : 14,
                        "JOINTS_0" : 15,
                        "WEIGHTS_0" : 16
                    },
                    "indices" : 17,
                    "material" : 2
                },
                {
                    "attributes" : {
                        "POSITION" : 18,
                        "NORMAL" : 19,
                        "TEXCOORD_0" : 20,
                        "JOINTS_0" : 21,
                        "WEIGHTS_0" : 22
                    },
                    "indices" : 23,
                    "material" : 3
                },
                {
                    "attributes" : {
                        "POSITION" : 24,
                        "NORMAL" : 25,
                        "TEXCOORD_0" : 26,
                        "JOINTS_0" : 27,
                        "WEIGHTS_0" : 28
                    },
                    "indices" : 5,
                    "material" : 4
                },
                {
                    "attributes" : {
                        "POSITION" : 29,
                        "NORMAL" : 30,
                        "TEXCOORD_0" : 31,
                        "JOINTS_0" : 32,
                        "WEIGHTS_0" : 33
                    },
                    "indices" : 11,
                    "material" : 5
                }
            ]
        }
    ],
    "skins" : [
        {
            "inverseBindMatrices" : 34,
            "joints" : [
                2,
                1,
                0
            ],
            "name" : "Armature"
        }
    ],
    "accessors" : [
        {
            "bufferView" : 0,
            "componentType" : 5126,
            "count" : 128,
            "max" : [
                -0.9767928123474121,
                3.0249485969543457,
                -1.3503496646881104
            ],
            "min" : [
                -1.9751930236816406,
                -0.15421444177627563,
                -4.553560256958008
            ],
            "type" : "VEC3"
        },
        {
            "bufferView" : 1,
            "componentType" : 5126,
            "count" : 128,
            "type" : "VEC3"
        },
        {
            "bufferView" : 2,
            "componentType" : 5126,
            "count" : 128,
            "type" : "VEC2"
        },
        {
            "bufferView" : 3,
            "componentType" : 5121,
            "count" : 128,
            "type" : "VEC4"
        },
        {
            "bufferView" : 4,
            "componentType" : 5126,
            "count" : 128,
            "type" : "VEC4"
        },
        {
            "bufferView" : 5,
            "componentType" : 5123,
            "count" : 192,
            "type" : "SCALAR"
        },
        {
            "bufferView" : 6,
            "componentType" : 5126,
            "count" : 64,
            "max" : [
                -0.9767928123474121,
                3.0249485969543457,
                -1.3503496646881104
            ],
            "min" : [
                -1.9751930236816406,
                -0.15421444177627563,
                -4.553560256958008
            ],
            "type" : "VEC3"
        },
        {
            "bufferView" : 7,
            "componentType" : 5126,
            "count" : 64,
            "type" : "VEC3"
        },
        {
            "bufferView" : 8,
            "componentType" : 5126,
            "count" : 64,
            "type" : "VEC2"
        },
        {
            "bufferView" : 9,
            "componentType" : 5121,
            "count" : 64,
            "type" : "VEC4"
        },
        {
            "bufferView" : 10,
            "componentType" : 5126,
            "count" : 64,
            "type" : "VEC4"
        },
        {
            "bufferView" : 11,
            "componentType" : 5123,
            "count" : 180,
            "type" : "SCALAR"
        },
        {
            "bufferView" : 12,
            "componentType" : 5126,
            "count" : 2012,
            "max" : [
                -1.5675135850906372,
                4.276827335357666,
                -1.3920093774795532
            ],
            "min" : [
                -5.46302604675293,
                -0.34467995166778564,
                -5.257946968078613
            ],
            "type" : "VEC3"
        },
        {
            "bufferView" : 13,
            "componentType" : 5126,
            "count" : 2012,
            "type" : "VEC3"
        },
        {
            "bufferView" : 14,
            "componentType" : 5126,
            "count" : 2012,
            "type" : "VEC2"
        },
        {
            "bufferView" : 15,
            "componentType" : 5121,
            "count" : 2012,
            "type" : "VEC4"
        },
        {
            "bufferView" : 16,
            "componentType" : 5126,
            "count" : 2012,
            "type" : "VEC4"
        },
        {
            "bufferView" : 17,
            "componentType" : 5123,
            "count" : 2922,
            "type" : "SCALAR"
        },
        {
            "bufferView" : 18,
            "componentType" : 5126,
            "count" : 20,
            "max" : [
                -2.645185947418213,
                2.6813414096832275,
                -2.5688247680664062
            ],
            "min" : [
                -4.547665119171143,
                1.0628947019577026,
                -3.1731486320495605
            ],
            "type" : "VEC3"
        },
        {
            "bufferView" : 19,
            "componentType" : 5126,
            "count" : 20,
            "type" : "VEC3"
        },
        {
            "bufferView" : 20,
            "componentType" : 5126,
            "count" : 20,
            "type" : "VEC2"
        },
        {
            "bufferView" : 21,
            "componentType" : 5121,
            "count" : 20,
            "type" : "VEC4"
        },
        {
            "bufferView" : 22,
            "componentType" : 5126,
            "count" : 20,
            "type" : "VEC4"
        },
        {
            "bufferView" : 23,
            "componentType" : 5123,
            "count" : 30,
            "type" : "SCALAR"
        },
        {
            "bufferView" : 24,
            "componentType" : 5126,
            "count" : 128,
            "max" : [
                -4.7097392082214355,
                2.2569162845611572,
                -1.797276258468628
            ],
            "min" : [
                -5.708139419555664,
                -0.9222468137741089,
                -5.000486850738525
            ],
            "type" : "VEC3"
        },
        {
            "bufferView" : 25,
            "componentType" : 5126,
            "count" : 128,
            "type" : "VEC3"
        },
        {
            "bufferView" : 26,
            "componentType" : 5126,
            "count" : 128,
            "type" : "VEC2"
        },
        {
            "bufferView" : 27,
            "componentType" : 5121,
            "count" : 128,
            "type" : "VEC4"
        },
        {
            "bufferView" : 28,
            "componentType" : 5126,
            "count" : 128,
            "type" : "VEC4"
        },
        {
            "bufferView" : 29,
            "componentType" : 5126,
            "count" : 64,
            "max" : [
                -4.7097392082214355,
                2.2569162845611572,
                -1.797276258468628
            ],
            "min" : [
                -5.708139419555664,
                -0.9222468137741089,
                -5.000486850738525
            ],
            "type" : "VEC3"
        },
        {
            "bufferView" : 30,
            "componentType" : 5126,
            "count" : 64,
            "type" : "VEC3"
        },
        {
            "bufferView" : 31,
            "componentType" : 5126,
            "count" : 64,
            "type" : "VEC2"
        },
        {
            "bufferView" : 32,
            "componentType" : 5121,
            "count" : 64,
            "type" : "VEC4"
        },
        {
            "bufferView" : 33,
            "componentType" : 5126,
            "count" : 64,
            "type" : "VEC4"
        },
        {
            "bufferView" : 34,
            "componentType" : 5126,
            "count" : 3,
            "type" : "MAT4"
        },
        {
            "bufferView" : 35,
            "componentType" : 5126,
            "count" : 70,
            "max" : [
                2.9166666666666665
            ],
            "min" : [
                0.041666666666666664
            ],
            "type" : "SCALAR"
        },
        {
            "bufferView" : 36,
            "componentType" : 5126,
            "count" : 70,
            "type" : "VEC3"
        },
        {
            "bufferView" : 37,
            "componentType" : 5126,
            "count" : 70,
            "type" : "VEC4"
        },
        {
            "bufferView" : 38,
            "componentType" : 5126,
            "count" : 70,
            "type" : "VEC3"
        },
        {
            "bufferView" : 39,
            "componentType" : 5126,
            "count" : 70,
            "type" : "VEC3"
        },
        {
            "bufferView" : 40,
            "componentType" : 5126,
            "count" : 70,
            "type" : "VEC4"
        },
        {
            "bufferView" : 41,
            "componentType" : 5126,
            "count" : 70,
            "type" : "VEC3"
        },
        {
            "bufferView" : 42,
            "componentType" : 5126,
            "count" : 70,
            "type" : "VEC3"
        },
        {
            "bufferView" : 43,
            "componentType" : 5126,
            "count" : 70,
            "type" : "VEC4"
        },
        {
            "bufferView" : 44,
            "componentType" : 5126,
            "count" : 70,
            "type" : "VEC3"
        }
    ],
    "bufferViews" : [
        {
            "buffer" : 0,
            "byteLength" : 1536,
            "byteOffset" : 0
        },
        {
            "buffer" : 0,
            "byteLength" : 1536,
            "byteOffset" : 1536
        },
        {
            "buffer" : 0,
            "byteLength" : 1024,
            "byteOffset" : 3072
        },
        {
            "buffer" : 0,
            "byteLength" : 512,
            "byteOffset" : 4096
        },
        {
            "buffer" : 0,
            "byteLength" : 2048,
            "byteOffset" : 4608
        },
        {
            "buffer" : 0,
            "byteLength" : 384,
            "byteOffset" : 6656
        },
        {
            "buffer" : 0,
            "byteLength" : 768,
            "byteOffset" : 7040
        },
        {
            "buffer" : 0,
            "byteLength" : 768,
            "byteOffset" : 7808
        },
        {
            "buffer" : 0,
            "byteLength" : 512,
            "byteOffset" : 8576
        },
        {
            "buffer" : 0,
            "byteLength" : 256,
            "byteOffset" : 9088
        },
        {
            "buffer" : 0,
            "byteLength" : 1024,
            "byteOffset" : 9344
        },
        {
            "buffer" : 0,
            "byteLength" : 360,
            "byteOffset" : 10368
        },
        {
            "buffer" : 0,
            "byteLength" : 24144,
            "byteOffset" : 10728
        },
        {
            "buffer" : 0,
            "byteLength" : 24144,
            "byteOffset" : 34872
        },
        {
            "buffer" : 0,
            "byteLength" : 16096,
            "byteOffset" : 59016
        },
        {
            "buffer" : 0,
            "byteLength" : 8048,
            "byteOffset" : 75112
        },
        {
            "buffer" : 0,
            "byteLength" : 32192,
            "byteOffset" : 83160
        },
        {
            "buffer" : 0,
            "byteLength" : 5844,
            "byteOffset" : 115352
        },
        {
            "buffer" : 0,
            "byteLength" : 240,
            "byteOffset" : 121196
        },
        {
            "buffer" : 0,
            "byteLength" : 240,
            "byteOffset" : 121436
        },
        {
            "buffer" : 0,
            "byteLength" : 160,
            "byteOffset" : 121676
        },
        {
            "buffer" : 0,
            "byteLength" : 80,
            "byteOffset" : 121836
        },
        {
            "buffer" : 0,
            "byteLength" : 320,
            "byteOffset" : 121916
        },
        {
            "buffer" : 0,
            "byteLength" : 60,
            "byteOffset" : 122236
        },
        {
            "buffer" : 0,
            "byteLength" : 1536,
            "byteOffset" : 122296
        },
        {
            "buffer" : 0,
            "byteLength" : 1536,
            "byteOffset" : 123832
        },
        {
            "buffer" : 0,
            "byteLength" : 1024,
            "byteOffset" : 125368
        },
        {
            "buffer" : 0,
            "byteLength" : 512,
            "byteOffset" : 126392
        },
        {
            "buffer" : 0,
            "byteLength" : 2048,
            "byteOffset" : 126904
        },
        {
            "buffer" : 0,
            "byteLength" : 768,
            "byteOffset" : 128952
        },
        {
            "buffer" : 0,
            "byteLength" : 768,
            "byteOffset" : 129720
        },
        {
            "buffer" : 0,
            "byteLength" : 512,
            "byteOffset" : 130488
        },
        {
            "buffer" : 0,
            "byteLength" : 256,
            "byteOffset" : 131000
        },
        {
            "buffer" : 0,
            "byteLength" : 1024,
            "byteOffset" : 131256
        },
        {
            "buffer" : 0,
            "byteLength" : 192,
            "byteOffset" : 132280
        },
        {
            "buffer" : 0,
            "byteLength" : 280,
            "byteOffset" : 132472
        },
        {
            "buffer" : 0,
            "byteLength" : 840,
            "byteOffset" : 132752
        },
        {
            "buffer" : 0,
            "byteLength" : 1120,
            "byteOffset" : 133592
        },
        {
            "buffer" : 0,
            "byteLength" : 840,
            "byteOffset" : 134712
        },
        {
            "buffer" : 0,
            "byteLength" : 840,
            "byteOffset" : 135552
        },
        {
            "buffer" : 0,
            "byteLength" : 1120,
            "byteOffset" : 136392
        },
        {
            "buffer" : 0,
            "byteLength" : 840,
            "byteOffset" : 137512
        },
        {
            "buffer" : 0,
            "byteLength" : 840,
            "byteOffset" : 138352
        },
        {
            "buffer" : 0,
            "byteLength" : 1120,
            "byteOffset" : 139192
        },
        {
            "buffer" : 0,
            "byteLength" : 840,
            "byteOffset" : 140312
        }
    ],
    "buffers" : [
        {
            "byteLength" : 141152,
            "uri" : "data:application/octet-stream;base64,"
        }
    ]
}
